<svg version="1.1" baseProfile="full" xmlns="http://www.w3.org/2000/svg" viewBox="0 0 596 140" preserveAspectRatio="xMidYMid meet">
  <path d="M39.7 32.2H21.6v58.2c0 13.5 6.3 14.8 18 14.4v5.4c-12.7.8-24.8-1-24.2-19.8V32.2H0v-5.4h15.4V.1h6.2v26.7h18.2v5.4zM52.2 0v44.6h.3c4.2-12.5 16.9-19.8 29.8-19.8 29.4 0 29.7 23.5 29.7 33.7v51.6h-6.2V57.5c0-8.6-1-27.2-23.7-27.2-18.7 0-30 14.4-30 34.9v45.1h-6.2V0h6.3zM125.3 45.3h.5c3.2-10.9 16.9-19.6 31.9-19v6.2c-6.5-.8-15.6.8-23 8.1-6.2 6.3-8.8 11.5-9.4 24v45.6h-6.2V26.8h6.2v18.5zM158.3 69.3c-.3 19.6 10.1 37.5 30.7 37.5 15.7 0 26.9-9.4 29.8-24.8h6.2c-3.2 19.5-16.2 30.2-36 30.2-24.3 0-37.1-19.1-36.8-42.2-.3-22.9 11.7-45.1 36.8-45.1 26.1 0 37.8 20.6 36.7 44.4h-67.4zm61.2-5.4c-.3-17.5-11.3-33.7-30.5-33.7-18.5 0-29.4 17.2-30.7 33.7h61.2zM236.8 69.3c-.3 19.6 10.1 37.5 30.7 37.5 15.7 0 26.9-9.4 29.8-24.8h6.2c-3.2 19.5-16.2 30.2-36 30.2-24.3 0-37.1-19.1-36.8-42.2-.3-22.9 11.7-45.1 36.8-45.1 26.1 0 37.8 20.6 36.7 44.4h-67.4zm61.1-5.4c-.3-17.5-11.4-33.7-30.5-33.7-18.5 0-29.4 17.2-30.7 33.7h61.2zM314.4 82.4c1 15.4 12.5 24.3 27.6 24.3 10.9 0 26.4-3.2 26.4-17.7 0-14.1-14.3-16.2-28.5-19.1-14.4-2.9-28.7-6.6-28.7-23.7 0-16.5 16.1-21.4 30.2-21.4 17.7 0 30.8 7.6 30.8 26.6H366c-.2-15.1-10.7-21.2-24.7-21.2-11.4 0-24 4.2-24 16.1 0 13.3 14.3 15.4 27.7 18.3 16.5 3.1 29.5 7 29.5 24.5 0 18-18 23-32.6 23-19 0-33.2-10.2-33.7-29.7h6.2zM386.7 45.9h.3c2.6-8.3 12-21.1 30.3-21.1 25.6 0 37.5 20.3 37.5 43.8 0 25.3-12 43.5-37.5 43.5-13.8 0-25.5-5.8-30.3-19.3h-.3V140h-6.2V26.8h6.2v19.1zm62 22.7c0-19-8.9-38.4-31.3-38.4-22.2 0-30.5 18.7-30.5 38.4 0 19.8 7 38.1 30.5 38.1 21.7.1 31.3-17.5 31.3-38.1zM498 24.9c24.5 0 38.3 19.9 38.3 43.6 0 23.7-13.8 43.6-38.3 43.6-24.5 0-38.3-20-38.3-43.6 0-23.7 13.8-43.6 38.3-43.6zm0 81.9c20.9 0 32.1-18.3 32.1-38.3 0-19.9-11.2-38.3-32.1-38.3-20.9 0-32.1 18.3-32.1 38.3 0 19.9 11.2 38.3 32.1 38.3zM571.1 32.2h-18.2v58.2c0 13.5 6.3 14.8 18 14.4v5.4c-12.7.8-24.8-1-24.2-19.8V32.2h-15.4v-5.4h15.4V.1h6.2v26.7h18.2v5.4zM585.1 110.3V99H596v11.3h-10.9z"/>
</svg>
