<svg version="1" xmlns="http://www.w3.org/2000/svg" viewBox="0 0 1792 1408" preserveAspectRatio="xMidYMid meet">
  <path d="M1664 1248V480c-21 24-44 46-69 66a13872 13872 0 0 0-509 405c-21 16-50 32-86 49-37 16-71 24-103 24h-2c-32 0-66-8-102-24s-66-33-87-49l-83-67c-105-88-247-201-426-338-25-20-48-42-69-66v768c0 9 3 16 10 23s13 9 22 9h1472c9 0 16-3 23-9s9-14 9-23zm0-1051v-37l-3-13-6-9-9-7-14-3H160c-9 0-16 3-22 10s-10 13-10 22c0 112 49 207 147 284l401 317 35 30c19 17 35 28 46 37l45 32c19 13 35 21 50 27s30 9 43 9h2c13 0 28-3 43-9s32-15 51-27a558 558 0 0 0 90-69l35-30 401-317c36-29 70-67 101-115s46-93 46-132zm128-37v1088c0 44-16 82-47 113s-69 47-113 47H160c-44 0-82-16-113-47s-47-69-47-113V160c0-44 16-82 47-113S116 0 160 0h1472c44 0 82 16 113 47s47 69 47 113z"/>
</svg>
