<svg version="1.1" baseProfile="full" xmlns="http://www.w3.org/2000/svg" viewBox="0 0 200 200" preserveAspectRatio="xMidYMid meet">
  <path d="M100 18c26.7 0 30 0 40.4.6 9.7.4 15 2 18.6 3.4 4.7 1.8 8 4 11.5 7.5s5.7 6.8 7.5 11.5c1.4 3.5 3 8.8 3.4 18.6.5 10.5.6 13.7.6 40.4s0 30-.6 40.4c-.4 9.7-2 15-3.4 18.6-1.8 4.7-4 8-7.5 11.5s-6.8 5.7-11.5 7.5c-3.5 1.4-8.8 3-18.6 3.4-10.5.5-13.7.6-40.4.6s-30 0-40.4-.6c-9.7-.4-15-2-18.6-3.4-4.7-1.8-8-4-11.5-7.5s-5.6-7-7.5-11.5c-1.4-3.5-3-8.8-3.4-18.6C18 130 18 126.7 18 100s0-30 .6-40.4c.4-9.7 2-15 3.4-18.6 1.8-4.7 4-8 7.5-11.5S36.5 24 41 22c3.5-1.4 8.8-3 18.6-3.4C70 18 73.3 18 100 18m0-18C72.8 0 69.4 0 58.8.6 48 1 40.8 2.8 34.5 5.2c-6.6 2.6-12.2 6-17.7 11.5-5.6 5.6-9 11-11.5 17.7C2.8 40.8 1 48 .7 58.7 0 69.4 0 72.7 0 100c0 27.2 0 30.6.6 41.2.5 10.6 2.2 18 4.6 24.3 2.6 6.6 6 12.2 11.5 17.7 5.6 5.6 11 9 17.7 11.5 6.4 2.5 13.6 4.2 24.3 4.6 10.7.5 14 .6 41.2.6s30.5-.2 41-.7c10.7-.5 18-2.2 24.4-4.6 6.6-2.6 12.2-6 17.7-11.5 5.7-5.6 9-11 11.6-17.7 2.5-6.4 4.2-13.6 4.6-24.3.5-10.7.6-14 .6-41.2s0-30.6-.6-41.2c-.5-10.6-2.2-18-4.6-24.3-2.6-6.6-6-12.2-11.5-17.7-5.5-5.6-11-9-17.6-11.5C159 2.8 151.8 1 141 .7 130.7 0 127.3 0 100 0z"/>
  <path d="M100 48.6c-28.4 0-51.4 23-51.4 51.4s23 51.4 51.4 51.4 51.4-23 51.4-51.4-23-51.4-51.4-51.4zm0 84.7c-18.4 0-33.3-15-33.3-33.3 0-18.4 15-33.3 33.3-33.3 18.4 0 33.3 15 33.3 33.3 0 18.4-15 33.3-33.3 33.3z"/>
  <circle cx="153.4" cy="46.6" r="12"/>
</svg>
