<svg version="1" xmlns="http://www.w3.org/2000/svg" viewBox="0 0 1408 1408" preserveAspectRatio="xMidYMid meet">
  <path d="M1408 1112a434 434 0 0 1-31 139c-14 33-55 69-122 106a388 388 0 0 1-343 21 4878 4878 0 0 1-105-39c-65-23-124-51-175-83-85-53-173-125-264-216S205 861 152 776A904 904 0 0 1 51 552a4878 4878 0 0 1-35-102A407 407 0 0 1 0 339c0-61 17-123 51-186C88 86 124 45 157 31A404 404 0 0 1 317 3c12 4 30 29 53 76l30 54a8346 8346 0 0 0 66 117l18 25s16 26 21 36c10 14 7 19 7 28 0 13-9 30-28 50s-40 38-62 55-43 34-62 53-29 34-29 46c0 6 2 14 5 23l9 20 14 24 11 19c51 91 109 170 174 235a1054 1054 0 0 0 254 186 334 334 0 0 0 45 22c9 3 16 5 22 5 12 0 27-9 46-28s36-40 53-62 35-43 55-62 37-29 50-29c9 0 19 2 29 7s21 12 35 22l25 17a2326 2326 0 0 0 117 66l54 30c47 23 72 41 76 53 2 5 3 12 3 21z"/>
</svg>
