<svg version="1.1" baseProfile="full" xmlns="http://www.w3.org/2000/svg" viewBox="0 0 149 149" preserveAspectRatio="xMidYMid meet">
  <path d="M148.8 28.9c-4.2 6.2-9.3 11.4-15.3 15.8.1.9.1 2.2.1 4 0 8.2-1.2 16.4-3.6 24.6-2.4 8.2-6 16-10.9 23.5s-10.7 14.1-17.4 19.9c-6.7 5.8-14.9 10.4-24.4 13.8-9.5 3.4-19.7 5.1-30.5 5.1-17.1 0-32.7-4.6-46.9-13.7 2.2.2 4.7.4 7.4.4 14.2 0 26.8-4.4 37.9-13.1-6.6-.1-12.5-2.2-17.8-6.1s-8.8-9-10.8-15.1c2.1.3 4 .5 5.7.5 2.7 0 5.4-.3 8-1-7.1-1.5-12.9-5-17.5-10.5s-7-12-7-19.4v-.4c4.3 2.4 8.9 3.7 13.8 3.9-4.2-2.8-7.5-6.4-9.9-10.9S6 40.9 6 35.6c0-5.5 1.4-10.7 4.2-15.4 7.8 9.3 17 16.8 28 22.4s22.6 8.8 35.1 9.4c-.5-2.4-.7-4.7-.7-7 0-8.4 3-15.6 8.9-21.6 6-6 13.2-8.9 21.6-8.9 8.8 0 16.3 3.2 22.3 9.6 6.9-1.3 13.3-3.8 19.4-7.4-2.3 7.3-6.8 12.9-13.4 16.8 5.8-.6 11.7-2.2 17.6-4.7l-.2.1z"/>
</svg>
